<svg xmlns="http://www.w3.org/2000/svg" data-name="Layer 1" viewBox="0 0 512 512"><path d="M166 465.662a6 6 0 0 0 6-6V426h13v33.662a6 6 0 1 0 12 0V426h14v33.662a6 6 0 1 0 12 0V426h14v33.662a6 6 0 1 0 12 0V426h14v33.662a6 6 0 1 0 12 0V426h14v33.662a6 6 0 1 0 12 0V426h14v33.662a6 6 0 1 0 12 0V426h13v33.662a6 6 0 1 0 12 0V393.815A18.531 18.531 0 0 0 333.466 375H273V155h2.822c3.314 0 6.178-3.182 6.178-6.5v-108a26 26 0 0 0-52 0v108c0 3.314 2.864 6.5 6.178 6.5H239V375H178.534A18.531 18.531 0 0 0 160 393.815v65.847A6 6 0 0 0 166 465.662zM172 407H340v7H172zm70-264V77h28v66zM256 26.685a13.988 13.988 0 0 1 14 13.82V65H242V40.505A13.989 13.989 0 0 1 256 26.685zM251 155h10V375H251zM178.534 387H333.466A6.524 6.524 0 0 1 340 393.815V395H172v-1.185A6.524 6.524 0 0 1 178.534 387zM420.534 468h5.777a6 6 0 0 0 0-12h-5.777c-4.656 0-8.443-3.344-8.443-8s3.787-8 8.443-8h8.775a22.5 22.5 0 1 1 0 45H338.651a6 6 0 0 0 0 12h90.658a34.5 34.5 0 1 0 0-69h-8.775a20 20 0 1 0 0 40zM311.324 491a6 6 0 0 0-6-6h-26a6 6 0 0 0 0 12h26A6 6 0 0 0 311.324 491zM82.691 497h90.658a6 6 0 0 0 0-12H82.691a22.5 22.5 0 1 1 0-45h8.775c4.656 0 8.443 3.345 8.443 8s-3.787 8-8.443 8H85.689a6 6 0 1 0 0 12h5.777a20 20 0 1 0 0-40H82.691a34.5 34.5 0 1 0 0 69zM232.673 485h-26a6 6 0 1 0 0 12h26a6 6 0 0 0 0-12z"/></svg>