<?xml version="1.0" encoding="UTF-8" standalone="no"?>
<svg xmlns="http://www.w3.org/2000/svg" viewBox="0 0 95.96 96"><title>Asset 33</title><g id="Layer_2" data-name="Layer 2"><g id="ICONS"><path d="M73.21,82.06H62.27a1.5,1.5,0,0,0,0,3H73.21a1.5,1.5,0,0,0,0-3Z"/><path d="M94.46,38.32H89V28.77a1.5,1.5,0,0,0-1.5-1.5H65.6a1.5,1.5,0,0,0-1.5,1.5v9.55H32.94v-8H56a1.5,1.5,0,0,0,1.5-1.5V1.5A1.5,1.5,0,0,0,56,0H6.84a1.5,1.5,0,0,0-1.5,1.5V28.84a1.5,1.5,0,0,0,1.5,1.5H29.94v8H1.5a1.5,1.5,0,0,0,0,3H6.81V94.5a1.5,1.5,0,0,0,3,0V41.32H47.69v31.3h0V94.5a1.5,1.5,0,0,0,1.5,1.5H87.47A1.5,1.5,0,0,0,89,94.5V72.63h0V41.32h5.49a1.5,1.5,0,0,0,0-3ZM8.34,3H54.55V27.34H8.34ZM67.1,30.27H86V38.2H67.1ZM86,71.13H50.69V57.72H86Zm-35.28,3H86V93H50.69ZM86,54.72H50.69V41.32H86Z"/></g></g>
	<metadata>
		<rdf:RDF xmlns:rdf="http://www.w3.org/1999/02/22-rdf-syntax-ns#" xmlns:rdfs="http://www.w3.org/2000/01/rdf-schema#" xmlns:dc="http://purl.org/dc/elements/1.1/">
			<rdf:Description about="https://iconscout.com/legal#licenses" dc:title="Asset 33" dc:description="Asset 33" dc:publisher="Iconscout" dc:date="2017-03-04" dc:format="image/svg+xml" dc:language="en">
				<dc:creator>
					<rdf:Bag>
						<rdf:li>Stone Hub</rdf:li>
					</rdf:Bag>
				</dc:creator>
			</rdf:Description>
		</rdf:RDF>
    </metadata></svg>
