<?xml version="1.0" encoding="UTF-8" standalone="no"?>
<svg xmlns="http://www.w3.org/2000/svg" viewBox="0 0 83.66 96.68"><title>Asset 21</title><g id="Layer_2" data-name="Layer 2"><g id="ICONS"><path d="M47.21,39.93H36.45a1.5,1.5,0,0,0,0,3H47.21a1.5,1.5,0,0,0,0-3Z"/><path d="M82.16,0H1.5A1.5,1.5,0,0,0,0,1.5V28.38H0V55.26H0v39.9a1.5,1.5,0,0,0,3,0V89H80.66v6.14a1.5,1.5,0,1,0,3,0V1.5A1.5,1.5,0,0,0,82.16,0ZM3,53.77V29.89H80.66V53.77ZM80.66,3V26.89H3V3ZM3,84.42V56.77H40.33V86H3ZM43.33,86V56.77H80.66V86Z"/><path d="M36.45,16H47.21a1.5,1.5,0,1,0,0-3H36.45a1.5,1.5,0,0,0,0,3Z"/></g></g>
	<metadata>
		<rdf:RDF xmlns:rdf="http://www.w3.org/1999/02/22-rdf-syntax-ns#" xmlns:rdfs="http://www.w3.org/2000/01/rdf-schema#" xmlns:dc="http://purl.org/dc/elements/1.1/">
			<rdf:Description about="https://iconscout.com/legal#licenses" dc:title="Asset 21" dc:description="Asset 21" dc:publisher="Iconscout" dc:date="2017-03-04" dc:format="image/svg+xml" dc:language="en">
				<dc:creator>
					<rdf:Bag>
						<rdf:li>Stone Hub</rdf:li>
					</rdf:Bag>
				</dc:creator>
			</rdf:Description>
		</rdf:RDF>
    </metadata></svg>
