<svg xmlns="http://www.w3.org/2000/svg" enable-background="new 0 0 512 512" viewBox="0 0 512 512"><path fill="#0d0d0d" d="M507,408H277c-2.8,0-5-2.2-5-5v-30c0-2.8,2.2-5,5-5h230c2.8,0,5,2.2,5,5v30
				C512,405.8,509.8,408,507,408z M282,398h220v-20H282V398z"/><path fill="#0d0d0d" d="M467 512H317c-2.3 0-4.3-1.6-4.9-3.8l-25-104c-.4-1.5 0-3.1.9-4.3.9-1.2 2.4-1.9 3.9-1.9h200c1.5 0 3 .7 3.9 1.9.9 1.2 1.3 2.8.9 4.3l-25 104C471.3 510.4 469.3 512 467 512zM320.9 502h142.1l22.6-94H298.3L320.9 502zM195 512H45c-2.3 0-4.3-1.6-4.9-3.8L16.1 408H5c-2.8 0-5-2.2-5-5v-30c0-2.8 2.2-5 5-5h230c2.8 0 5 2.2 5 5v30c0 2.8-2.2 5-5 5h-11.1l-24.1 100.2C199.3 510.4 197.3 512 195 512zM48.9 502h142.1l24.1-100.2c.5-2.2 2.5-3.8 4.9-3.8h10v-20H10v20h190v10H26.3L48.9 502z"/><rect width="10" height="84" x="115" y="289" fill="#0d0d0d"/><path fill="#0d0d0d" d="M53 357c-6.8 0-13.1-2.6-17.9-7.4-2.5-2.5-5.7-4-9.2-4.4l-8.8-1c-1.9-.2-3.5-1.5-4.2-3.3-.6-1.8-.2-3.8 1.2-5.2l28-28c4.8-4.8 11.2-7.4 17.9-7.4s13.1 2.6 17.9 7.4l13.9 13.9c.9.9 1.5 2.2 1.5 3.5s-.5 2.6-1.5 3.5l-21 21C66.1 354.4 59.8 357 53 357zM28.5 335.5c5.1.9 9.9 3.4 13.6 7.1 2.9 2.9 6.8 4.5 10.9 4.5s8-1.6 10.9-4.5l17.4-17.4-10.4-10.4c-2.9-2.9-6.8-4.5-10.9-4.5s-8 1.6-10.9 4.5L28.5 335.5zM392 337.6h-9.8c-20.5 0-37.2-16.7-37.2-37.2v-9.8c0-2.8 2.2-5 5-5h9.8c20.5 0 37.2 16.7 37.2 37.2v9.8C397 335.3 394.8 337.6 392 337.6zM355 295.6v4.8c0 15 12.2 27.2 27.2 27.2h4.8v-4.8c0-15-12.2-27.2-27.2-27.2H355z"/><path fill="#0d0d0d" d="M401.8 337.6H392c-2.8 0-5-2.2-5-5v-9.8c0-20.5 16.7-37.2 37.2-37.2h9.8c2.8 0 5 2.2 5 5v9.8C439 320.9 422.3 337.6 401.8 337.6zM397 327.6h4.8c15 0 27.2-12.2 27.2-27.2v-4.8h-4.8c-15 0-27.2 12.2-27.2 27.2V327.6zM116.5 360.3l-28.7-28.7c-8-8-20.4-9-29.6-2.3l-4.7 3.4-5.9-8.1 4.7-3.4c13.1-9.6 31-8.2 42.5 3.3l28.7 28.7L116.5 360.3z"/><rect width="10" height="40" x="387" y="333" fill="#0d0d0d"/><path fill="#0d0d0d" d="M392 337.6c-1.3 0-2.6-.5-3.5-1.5l-21-21 7.1-7.1 17.5 17.5 17.5-17.5 7.1 7.1-21 21C394.6 337.1 393.3 337.6 392 337.6zM120 293.6h-9.8c-20.5 0-37.2-16.7-37.2-37.2v-9.8c0-2.8 2.2-5 5-5h9.8c20.5 0 37.2 16.7 37.2 37.2v9.8C125 291.3 122.8 293.6 120 293.6zM83 251.6v4.8c0 15 12.2 27.2 27.2 27.2h4.8v-4.8c0-15-12.2-27.2-27.2-27.2H83z"/><path fill="#0d0d0d" d="M129.8,293.6H120c-2.8,0-5-2.2-5-5v-9.8c0-20.5,16.7-37.2,37.2-37.2h9.8c2.8,0,5,2.2,5,5
				v9.8C167,276.9,150.3,293.6,129.8,293.6z M125,283.6h4.8c15,0,27.2-12.2,27.2-27.2v-4.8h-4.8c-15,0-27.2,12.2-27.2,27.2V283.6z"/><path fill="#0d0d0d" d="M120 293.6c-1.3 0-2.6-.5-3.5-1.5l-21-21 7.1-7.1 17.5 17.5 17.5-17.5 7.1 7.1-21 21C122.6 293.1 121.3 293.6 120 293.6zM154 233h-10c0-15.4 12.6-28 28-28h11v10h-11C162.1 215 154 223.1 154 233zM96 233H86c0-47.4 38.6-86 86-86h26v10h-26C130.1 157 96 191.1 96 233z"/><path fill="#0d0d0d" d="M125 233h-10c0-31.4 25.6-57 57-57h19v10h-19C146.1 186 125 207.1 125 233zM355.2 245.4L212 210.4c-1.3-.3-2.4-1.2-3.1-2.3-.7-1.2-.9-2.5-.5-3.8l9.3-34.8c.6-2.4 3-4 5.4-3.7l66.5 7.9-1.2 9.9-62.2-7.4-6.9 25.7 138.2 33.7L355.2 245.4z"/><path fill="#0d0d0d" d="M183.1,214.6c-1.4,0-2.8-0.6-3.8-1.7c-1.1-1.3-1.5-3-1.1-4.6l15.4-57.3
				c0.4-1.6,1.6-2.9,3.2-3.4c1.6-0.5,3.3-0.2,4.7,0.8l24,18.5c1.6,1.2,2.3,3.3,1.8,5.3l-9.3,34.8c-0.5,1.9-2.2,3.4-4.2,3.7l-30.1,4
				C183.6,214.6,183.4,214.6,183.1,214.6z M201.4,160.8l-11.5,42.8l19.3-2.6l7.6-28.3L201.4,160.8z"/><rect width="10" height="86.9" x="185.8" y="137.5" fill="#0d0d0d" transform="rotate(14.999 190.798 180.932)"/><path fill="#0d0d0d" d="M336.2,117.3c-5.3,0-10.4-2.1-14.1-5.9l-63.6-63.6c-3.8-3.8-5.9-8.8-5.9-14.1
				c0-5.3,2.1-10.4,5.9-14.1l0,0c0,0,0,0,0,0c3.8-3.8,8.8-5.9,14.1-5.9s10.4,2.1,14.1,5.9l63.6,63.6c3.8,3.8,5.9,8.8,5.9,14.1
				c0,5.3-2.1,10.4-5.9,14.1C346.6,115.2,341.6,117.3,336.2,117.3z M272.6,23.7c-2.7,0-5.2,1-7.1,2.9c0,0,0,0,0,0
				c-1.9,1.9-2.9,4.4-2.9,7.1c0,2.7,1,5.2,2.9,7.1l63.6,63.6c1.9,1.9,4.4,2.9,7.1,2.9s5.2-1,7.1-2.9c1.9-1.9,2.9-4.4,2.9-7.1
				c0-2.7-1-5.2-2.9-7.1l-63.6-63.6C277.8,24.7,275.2,23.7,272.6,23.7z"/><rect width="10" height="10" x="327.3" y="88.4" fill="#0d0d0d" transform="rotate(45.004 332.31 93.414)"/><path fill="#0d0d0d" d="M428.9,81.7l-7.1-7.1l3.1-3.1c6.4-6.4,7.8-16.4,3.5-24.3l-14.5-26.6
				c-3.6-6.6-10.5-10.6-18-10.6c-5.5,0-10.6,2.1-14.5,6l-18,18l-7.1-7.1l18-18c5.8-5.8,13.4-8.9,21.5-8.9c11.1,0,21.4,6.1,26.7,15.9
				l14.5,26.6c6.4,11.8,4.3,26.7-5.2,36.2L428.9,81.7z"/><path fill="#0d0d0d" d="M356.4,245.5c-0.1,0-0.3,0-0.4,0c-1.5-0.1-2.8-0.9-3.7-2l-87-119.5c-1.4-2-1.2-4.7,0.5-6.5
				l34.6-34.6l7.1,7.1L276,121.5l81,111.3l114.8-114.8L360.4,37l-31.6,31.6l-7.1-7.1L356.4,27c1.7-1.7,4.5-2,6.5-0.5l119.5,87
				c1.2,0.9,1.9,2.2,2,3.7c0.1,1.5-0.4,2.9-1.4,3.9l-123,123C359,245,357.7,245.5,356.4,245.5z"/></svg>