<?xml version="1.0" encoding="UTF-8" standalone="no"?>
<svg xmlns:dc="http://purl.org/dc/elements/1.1/" xmlns:cc="http://creativecommons.org/ns#" xmlns:rdf="http://www.w3.org/1999/02/22-rdf-syntax-ns#" xmlns:svg="http://www.w3.org/2000/svg" xmlns="http://www.w3.org/2000/svg" xmlns:sodipodi="http://sodipodi.sourceforge.net/DTD/sodipodi-0.dtd" xmlns:inkscape="http://www.inkscape.org/namespaces/inkscape" width="32" height="32" viewBox="0 0 8.4666665 8.4666669" version="1.1" id="svg8" inkscape:version="0.91 r13725" sodipodi:docname="spanner-mechanic-mechanical-tool-2.svg">
  <defs id="defs2">
    <inkscape:path-effect effect="fillet-chamfer" id="path-effect6194-9" is_visible="true" fillet_chamfer_values="-2.083553,1 | -1.5194253,1 | 0,1" method="auto" radius="2" chamfer_steps="1" helper_size="0" flexible="false" use_knot_distance="false" ignore_radius_0="false" only_selected="true" hide_knots="false"/>
    <inkscape:path-effect effect="fillet-chamfer" id="path-effect6200-3" is_visible="true" fillet_chamfer_values="0,0 | -2.1346047,1 | -1.3969861,1 | -0.057274208,1 | -0.16666667,1" method="auto" radius="0.5" chamfer_steps="1" helper_size="0" flexible="false" use_knot_distance="false" ignore_radius_0="false" only_selected="true" hide_knots="false"/>
    <pattern y="0" x="0" height="6" width="6" patternUnits="userSpaceOnUse" id="EMFhbasepattern"/>
    <pattern y="0" x="0" height="6" width="6" patternUnits="userSpaceOnUse" id="EMFhbasepattern-6"/>
    <inkscape:path-effect effect="fillet-chamfer" id="path-effect6795-9" is_visible="true" fillet_chamfer_values="0,0 | -2,1 | -2,1 | -2,1" method="auto" radius="2" chamfer_steps="1" helper_size="0" flexible="false" use_knot_distance="false" ignore_radius_0="false" only_selected="true" hide_knots="false"/>
    <pattern y="0" x="0" height="6" width="6" patternUnits="userSpaceOnUse" id="EMFhbasepattern-4"/>
    <pattern y="0" x="0" height="6" width="6" patternUnits="userSpaceOnUse" id="EMFhbasepattern-3"/>
    <pattern y="0" x="0" height="6" width="6" patternUnits="userSpaceOnUse" id="EMFhbasepattern-0"/>
    <inkscape:path-effect effect="fillet-chamfer" id="path-effect5842-1-6-2-7" is_visible="true" fillet_chamfer_values="0,0 | -0.49999733,1 | -0.50000267,1" method="auto" radius="0.5" chamfer_steps="1" helper_size="0" flexible="false" use_knot_distance="false" ignore_radius_0="false" only_selected="true" hide_knots="false"/>
    <inkscape:path-effect effect="fillet-chamfer" id="path-effect9698-1" is_visible="true" fillet_chamfer_values="0,0 | -0.71730365,1" method="auto" radius="1" chamfer_steps="1" helper_size="0" flexible="false" use_knot_distance="false" ignore_radius_0="false" only_selected="true" hide_knots="false"/>
  </defs>
  <sodipodi:namedview id="base" pagecolor="#ffffff" bordercolor="#666666" borderopacity="1.0" inkscape:pageopacity="0.0" inkscape:pageshadow="2" inkscape:zoom="11.313708" inkscape:cx="21.449139" inkscape:cy="22.468741" inkscape:document-units="mm" inkscape:current-layer="layer1" showgrid="true" units="px" inkscape:window-width="1366" inkscape:window-height="716" inkscape:window-x="-8" inkscape:window-y="-8" inkscape:window-maximized="1">
    <inkscape:grid type="xygrid" id="grid4726"/>
  </sodipodi:namedview>
  
  <g inkscape:label="Layer 1" inkscape:groupmode="layer" id="layer1" transform="translate(0,-288.53332)">
    <path style="color:#000000;font-style:normal;font-variant:normal;font-weight:normal;font-stretch:normal;font-size:medium;line-height:normal;font-family:sans-serif;text-indent:0;text-align:start;text-decoration:none;text-decoration-line:none;text-decoration-style:solid;text-decoration-color:#000000;letter-spacing:normal;word-spacing:normal;text-transform:none;direction:ltr;writing-mode:lr-tb;baseline-shift:baseline;text-anchor:start;white-space:normal;clip-rule:nonzero;display:inline;overflow:visible;visibility:visible;opacity:1;isolation:auto;mix-blend-mode:normal;color-interpolation:sRGB;color-interpolation-filters:linearRGB;solid-color:#000000;solid-opacity:1;fill:#000000;fill-opacity:1;fill-rule:nonzero;stroke:none;stroke-width:1.00115418;stroke-linecap:butt;stroke-linejoin:round;stroke-miterlimit:4;stroke-dasharray:none;stroke-dashoffset:0;stroke-opacity:1;color-rendering:auto;image-rendering:auto;shape-rendering:auto;text-rendering:auto;enable-background:accumulate" d="m 7.2269515,289.01818 c -0.014293,-0.0143 -0.032579,-0.024 -0.051916,-0.0298 -0.4851057,-0.14888 -1.0228945,-0.006 -1.3921368,0.36467 -0.344658,0.34599 -0.4661204,0.83716 -0.3608572,1.29463 -1.1238532,1.12284 -2.2391542,2.23646 -3.3633677,3.3589 -0.5606636,-0.14735 -1.1570029,0.0852 -1.46359713,0.57941 -0.3230195,0.52071 -0.24479333,1.19745 0.18856865,1.63063 0.43334308,0.4332 1.10975418,0.51118 1.63084618,0.18847 0.4945682,-0.30629 0.7287818,-0.89786 0.581507,-1.46409 1.123821,-1.12402 2.2373599,-2.23777 3.3616669,-3.36116 0.4578233,0.10514 0.9487687,-0.0159 1.2950373,-0.36029 0.3722325,-0.37014 0.5062252,-0.91277 0.3575691,-1.39642 -0.029354,-0.095 -0.1492279,-0.12485 -0.2197788,-0.0547 l -0.6901009,0.6897 -0.4205719,-0.14007 -0.1401494,-0.42032 0.690101,-0.6897 c 0.052714,-0.0528 0.051412,-0.13863 -0.0029,-0.18974 z m 0.5362017,1.15186 c 0.014407,0.31173 -0.062626,0.62853 -0.2972878,0.86189 -0.3040339,0.30232 -0.7414979,0.41408 -1.1274435,0.29349 -0.046987,-0.0148 -0.098349,-0.002 -0.1332515,0.0325 -1.1511665,1.15021 -2.3017634,2.30098 -3.4523368,3.45178 -0.035656,0.0355 -0.048098,0.0881 -0.03214,0.13573 0.1564802,0.46569 -0.027693,0.97603 -0.4455511,1.23481 -0.4178962,0.25881 -0.956616,0.19648 -1.30409883,-0.15092 -0.34751631,-0.34735 -0.41004003,-0.8865 -0.15101165,-1.30405 0.25904318,-0.41758 0.76961728,-0.60107 1.23553518,-0.44457 0.047721,0.0159 0.1003183,0.004 0.1358147,-0.0321 1.1511714,-1.14934 2.3019502,-2.29878 3.4527104,-3.44849 0.035354,-0.0352 0.047919,-0.0872 0.032496,-0.13463 -0.1199656,-0.38525 -0.00821,-0.8223 0.2940375,-1.1257 0.2337416,-0.23465 0.5469501,-0.31425 0.8561751,-0.30258 l -0.5316436,0.53133 c -0.035385,0.0353 -0.047814,0.0876 -0.032149,0.13502 l 0.1872309,0.5608 c 0.01323,0.0394 0.044194,0.0703 0.083597,0.0836 l 0.5604072,0.18711 c 0.047721,0.0159 0.1003183,0.004 0.1358147,-0.0321 z" id="path28980" inkscape:connector-curvature="0" sodipodi:nodetypes="ccccccccccccccccccccccccccccccccccccccccc"/>
    <path style="color:#000000;font-style:normal;font-variant:normal;font-weight:normal;font-stretch:normal;font-size:medium;line-height:normal;font-family:sans-serif;text-indent:0;text-align:start;text-decoration:none;text-decoration-line:none;text-decoration-style:solid;text-decoration-color:#000000;letter-spacing:normal;word-spacing:normal;text-transform:none;direction:ltr;writing-mode:lr-tb;baseline-shift:baseline;text-anchor:start;white-space:normal;clip-rule:nonzero;display:inline;overflow:visible;visibility:visible;opacity:1;isolation:auto;mix-blend-mode:normal;color-interpolation:sRGB;color-interpolation-filters:linearRGB;solid-color:#000000;solid-opacity:1;fill:#000000;fill-opacity:1;fill-rule:evenodd;stroke:none;stroke-width:1.00115418px;stroke-linecap:butt;stroke-linejoin:miter;stroke-miterlimit:4;stroke-dasharray:none;stroke-dashoffset:0;stroke-opacity:1;color-rendering:auto;image-rendering:auto;shape-rendering:auto;text-rendering:auto;enable-background:accumulate" d="m 5.4574597,291.35798 -2.711124,2.70879 0.1872721,0.18716 2.7107501,-2.70842 z" id="path28978" inkscape:connector-curvature="0"/>
    <path style="color:#000000;font-style:normal;font-variant:normal;font-weight:normal;font-stretch:normal;font-size:medium;line-height:normal;font-family:sans-serif;text-indent:0;text-align:start;text-decoration:none;text-decoration-line:none;text-decoration-style:solid;text-decoration-color:#000000;letter-spacing:normal;word-spacing:normal;text-transform:none;direction:ltr;writing-mode:lr-tb;baseline-shift:baseline;text-anchor:start;white-space:normal;clip-rule:nonzero;display:inline;overflow:visible;visibility:visible;opacity:1;isolation:auto;mix-blend-mode:normal;color-interpolation:sRGB;color-interpolation-filters:linearRGB;solid-color:#000000;solid-opacity:1;fill:#000000;fill-opacity:1;fill-rule:evenodd;stroke:none;stroke-width:1.00115418px;stroke-linecap:round;stroke-linejoin:round;stroke-miterlimit:4;stroke-dasharray:none;stroke-dashoffset:0;stroke-opacity:1;color-rendering:auto;image-rendering:auto;shape-rendering:auto;text-rendering:auto;enable-background:accumulate" d="m 2.2804133,294.72215 a 0.13226354,0.13234628 79.672914 0 0 -0.057588,-0.0344 l -0.6542263,-0.18675 a 0.13226354,0.13234628 79.672914 0 0 -0.1300702,0.0337 l -0.46737076,0.46709 a 0.13226354,0.13234628 79.672914 0 0 -0.033603,0.1299 l 0.18685555,0.65385 a 0.13226354,0.13234628 79.672914 0 0 0.090533,0.0905 l 0.6542263,0.18674 a 0.13226354,0.13234628 79.672914 0 0 0.1299767,-0.0336 l 0.4673708,-0.4671 a 0.13226354,0.13234628 79.672914 0 0 0.033603,-0.1299 l -0.1868555,-0.65384 a 0.13226354,0.13234628 79.672914 0 0 -0.032946,-0.0561 z m -0.2015488,0.19998 0.1456167,0.50826 -0.3574826,0.35727 -0.508558,-0.14553 -0.1456167,-0.50826 0.3574825,-0.35728 z" id="path28982" inkscape:connector-curvature="0"/>
  </g>

	<metadata>
		<rdf:RDF xmlns:rdf="http://www.w3.org/1999/02/22-rdf-syntax-ns#" xmlns:rdfs="http://www.w3.org/2000/01/rdf-schema#" xmlns:dc="http://purl.org/dc/elements/1.1/">
			<rdf:Description about="https://iconscout.com/legal#licenses" dc:title="spanner-mechanic-mechanical-tool-repair-plumbing-2" dc:description="spanner-mechanic-mechanical-tool-repair-plumbing-2" dc:publisher="Iconscout" dc:date="2017-04-18" dc:format="image/svg+xml" dc:language="en">
				<dc:creator>
					<rdf:Bag>
						<rdf:li>Vignesh Oviyan</rdf:li>
					</rdf:Bag>
				</dc:creator>
			</rdf:Description>
		</rdf:RDF>
    </metadata></svg>
