<svg xmlns="http://www.w3.org/2000/svg" viewBox="0 0 64 64"><path d="M59,46H58V36a7,7,0,0,0-7-7H42a5,5,0,0,0-5-5V21a1,1,0,0,0-1-1H35V18h3a3,3,0,0,0,0-6H26a3,3,0,0,0,0,6h3v2H28a1,1,0,0,0-1,1v3a5,5,0,0,0-5,5H10V28a1,1,0,0,0-1-1H6V26a1,1,0,0,0-2,0V42a1,1,0,0,0,2,0V41H9a1,1,0,0,0,1-1V39H22a5,5,0,0,0,5,5H37a5,5,0,0,0,5-5h5a1,1,0,0,1,1,1v6H47a1,1,0,0,0-1,1v4a1,1,0,0,0,1,1H59a1,1,0,0,0,1-1V47A1,1,0,0,0,59,46ZM25,15a1,1,0,0,1,1-1H38a1,1,0,0,1,0,2H26A1,1,0,0,1,25,15Zm6,3h2v2H31Zm-2,4h6v2H29ZM8,39H6V29H8V39Zm2-2V31H22v6Zm30,2a3,3,0,0,1-3,3H27a3,3,0,0,1-3-3V29a3,3,0,0,1,3-3H37a3,3,0,0,1,3,3V39Zm7-2H42V31h9a5,5,0,0,1,5,5V46H50V40A3,3,0,0,0,47,37ZM58,50H48V48H58Z" data-name="Layer 33"/></svg>