<svg xmlns="http://www.w3.org/2000/svg" viewBox="0 0 64 64"><path fill="#222" d="M12.25,45a8.5,8.5,0,1,1,8.5-8.5A8.51,8.51,0,0,1,12.25,45Zm0-14a5.5,5.5,0,1,0,5.5,5.5A5.51,5.51,0,0,0,12.25,31Z"/><path fill="#222" d="M19.75,57h-15a1.5,1.5,0,0,1-1.5-1.5v-7A6.51,6.51,0,0,1,9.75,42h5a6.51,6.51,0,0,1,6.5,6.5v7A1.5,1.5,0,0,1,19.75,57ZM6.25,54h12V48.5a3.5,3.5,0,0,0-3.5-3.5h-5a3.5,3.5,0,0,0-3.5,3.5Z"/><path fill="#222" d="M20.25 51a1.5 1.5 0 0 1-1.13-2.49l14-16a1.5 1.5 0 1 1 2.26 2l-14 16A1.49 1.49 0 0 1 20.25 51zM59.25 10h-49a1.5 1.5 0 0 1 0-3h49a1.5 1.5 0 0 1 0 3zM59.25 41h-21a1.5 1.5 0 0 1 0-3h21a1.5 1.5 0 0 1 0 3z"/><path fill="#222" d="M55.25 41a1.5 1.5 0 0 1-1.5-1.5V8.5a1.5 1.5 0 0 1 3 0v31A1.5 1.5 0 0 1 55.25 41zM14.25 24a1.5 1.5 0 0 1-1.5-1.5V8.5a1.5 1.5 0 0 1 3 0v14A1.5 1.5 0 0 1 14.25 24zM36.25 19h-11a1.5 1.5 0 0 1 0-3h11a1.5 1.5 0 0 1 0 3zM43.25 27h-18a1.5 1.5 0 0 1 0-3h18a1.5 1.5 0 0 1 0 3z"/></svg>