<?xml version="1.0" encoding="UTF-8" standalone="no"?>
<svg
   xmlns:dc="http://purl.org/dc/elements/1.1/"
   xmlns:cc="http://creativecommons.org/ns#"
   xmlns:rdf="http://www.w3.org/1999/02/22-rdf-syntax-ns#"
   xmlns:svg="http://www.w3.org/2000/svg"
   xmlns="http://www.w3.org/2000/svg"
   xmlns:sodipodi="http://sodipodi.sourceforge.net/DTD/sodipodi-0.dtd"
   xmlns:inkscape="http://www.inkscape.org/namespaces/inkscape"
   id="SvgjsSvg1001"
   width="254.11765"
   height="270.50461"
   version="1.1"
   sodipodi:docname="no_review.svg"
   inkscape:version="1.0.2-2 (e86c870879, 2021-01-15)">
  <metadata
     id="metadata13">
    <rdf:RDF>
      <cc:Work
         rdf:about="">
        <dc:format>image/svg+xml</dc:format>
        <dc:type
           rdf:resource="http://purl.org/dc/dcmitype/StillImage" />
        <dc:title></dc:title>
      </cc:Work>
    </rdf:RDF>
  </metadata>
  <sodipodi:namedview
     pagecolor="#ffffff"
     bordercolor="#666666"
     borderopacity="1"
     objecttolerance="10"
     gridtolerance="10"
     guidetolerance="10"
     inkscape:pageopacity="0"
     inkscape:pageshadow="2"
     inkscape:window-width="1920"
     inkscape:window-height="1017"
     id="namedview11"
     showgrid="false"
     fit-margin-top="0"
     fit-margin-left="0"
     fit-margin-right="0"
     fit-margin-bottom="0"
     inkscape:zoom="1.4756944"
     inkscape:cx="10.233528"
     inkscape:cy="62.539212"
     inkscape:window-x="-8"
     inkscape:window-y="-8"
     inkscape:window-maximized="1"
     inkscape:current-layer="SvgjsSvg1001" />
  <defs
     id="SvgjsDefs1002">
    <rect
       x="-109.10118"
       y="78.607056"
       width="250.72942"
       height="128.0753"
       id="rect840" />
  </defs>
  <g
     id="SvgjsG1008"
     transform="matrix(0.91670001,0,0,0.91670001,12.245099,-5.5002002)">
    <svg
       enable-background="new 0 0 48 48"
       viewBox="0 0 48 48"
       width="288"
       height="288"
       version="1.1"
       id="svg7">
      <path
         d="M 38,17.8 V 19 c 0,1.1 -0.9,2 -2,2 -1.1,0 -2,-0.9 -2,-2 v -1.2 l -0.8,0.8 c -0.4,0.4 -0.9,0.6 -1.4,0.6 -0.5,0 -1,-0.2 -1.4,-0.6 -0.8,-0.8 -0.8,-2 0,-2.8 L 31.2,15 H 30 c -1.1,0 -2,-0.9 -2,-2 0,-0.4 0.1,-0.7 0.3,-1 H 12 c -1.1,0 -2,0.9 -2,2 v 18 l -4,10 8,-4 h 23 c 1.1,0 2,-0.9 2,-2 V 18.8 c -0.1,0 -0.1,-0.1 -0.2,-0.1 z M 20,28 h -6 c -0.5,0 -1,-0.5 -1,-1 0,-0.5 0.5,-1 1,-1 h 6 c 0.5,0 1,0.5 1,1 0,0.5 -0.4,1 -1,1 z m 4,-5 H 14 c -0.5,0 -1,-0.5 -1,-1 0,-0.5 0.5,-1 1,-1 h 10 c 0.5,0 1,0.5 1,1 0,0.5 -0.4,1 -1,1 z m 4,-5 H 14 c -0.5,0 -1,-0.5 -1,-1 0,-0.5 0.5,-1 1,-1 h 14 c 0.5,0 1,0.5 1,1 0,0.5 -0.4,1 -1,1 z"
         fill="#bac6be"
         class="color000 svgShape"
         id="path3" />
      <path
         d="M 42,12 H 38.4 L 41,9.5 C 41.4,9.1 41.4,8.5 41,8.1 40.8,7.9 40.5,7.8 40.3,7.8 40,7.8 39.8,7.9 39.6,8.1 L 37,10.6 V 7 C 37,6.5 36.5,6 36,6 35.5,6 35,6.5 35,7 v 3.6 L 32.5,8 C 32.3,7.8 32,7.7 31.8,7.7 c -0.3,0 -0.5,0.1 -0.7,0.3 -0.4,0.4 -0.4,1 0,1.4 l 2.5,2.5 H 30 c -0.5,0 -1,0.5 -1,1 0,0.5 0.5,1 1,1 h 3.6 l -2.5,2.5 c -0.4,0.4 -0.4,1 0,1.4 0.2,0.2 0.5,0.3 0.7,0.3 0.3,0 0.5,-0.1 0.7,-0.3 L 35,15.3 V 19 c 0,0.5 0.5,1 1,1 0.5,0 1,-0.5 1,-1 v -3.6 l 2.5,2.5 c 0.2,0.2 0.5,0.3 0.7,0.3 0.3,0 0.5,-0.1 0.7,-0.3 0.4,-0.4 0.4,-1 0,-1.4 L 38.4,14 H 42 c 0.5,0 1,-0.5 1,-1 0,-0.5 -0.4,-1 -1,-1 z"
         fill="#bac6be"
         class="color000 svgShape"
         id="path5" />
    </svg>
  </g>
  <text
     xml:space="preserve"
     id="text838"
     style="font-style:normal;font-variant:normal;font-weight:normal;font-stretch:normal;font-size:40px;line-height:1.15;font-family:'Felix Titling';-inkscape-font-specification:'Felix Titling';white-space:pre;shape-inside:url(#rect840);fill:#000000;fill-opacity:0.60241;stroke:none;"
     transform="rotate(0.28048164,-6397.3564,23232.961)"><tspan
       x="-109.10156"
       y="121.60742"><tspan
         style="font-style:normal;font-variant:normal;font-weight:normal;font-stretch:normal;font-family:'Felix Titling';-inkscape-font-specification:'Felix Titling';fill:#000000;fill-opacity:0.60241">No
</tspan></tspan><tspan
       x="-109.10156"
       y="167.60742"><tspan
         style="font-style:normal;font-variant:normal;font-weight:normal;font-stretch:normal;font-family:'Felix Titling';-inkscape-font-specification:'Felix Titling';fill:#000000;fill-opacity:0.60241">reViews</tspan></tspan></text>
  <rect
     style="opacity:0.997;fill:#000000;fill-opacity:0;stroke-width:1.00157;paint-order:fill markers stroke"
     id="rect844"
     width="254.11765"
     height="248.69647"
     x="0"
     y="21.808128"
     ry="25.8501" />
</svg>
